<svg xmlns="http://www.w3.org/2000/svg" fill-rule="evenodd" stroke-linejoin="round" stroke-miterlimit="2" clip-rule="evenodd" viewBox="0 0 24 24"><g transform="translate(-40 -40)"><rect width="24" height="24" x="40" y="40" fill="none"/><path fill="#000000" d="M396.481,445.462C396.583,445.236 396.586,444.979 396.491,444.75C396.397,444.522 396.212,444.342 395.981,444.254C393.564,443.332 393.172,439.887 395.564,438.564C395.796,438.436 395.959,438.213 396.011,437.953C396.063,437.693 395.997,437.424 395.833,437.216C394.708,435.803 393.117,435.014 391.628,435.014C390.433,435.014 389.678,435.365 388.951,435.627C388.692,435.72 388.44,435.802 388.145,435.802C387.663,435.802 387.243,435.622 386.794,435.461C386.155,435.232 385.479,435.014 384.65,435.014C382.983,435.014 381.19,436.001 380.066,437.747C378.602,440.021 378.743,444.312 381.116,447.96C381.634,448.754 382.265,449.597 383.004,450.155C383.602,450.607 384.27,450.883 385.001,450.889C385.629,450.895 386.08,450.744 386.528,450.548C386.949,450.365 387.365,450.117 388.166,450.113C388.955,450.108 389.357,450.354 389.764,450.538C390.208,450.737 390.655,450.893 391.289,450.887C392.023,450.88 392.71,450.579 393.326,450.088C394.074,449.491 394.72,448.599 395.23,447.815C395.812,446.922 396.029,446.472 396.481,445.462ZM393.753,437.653C393.107,437.119 392.356,436.814 391.628,436.814C390.702,436.814 390.125,437.117 389.562,437.32C389.109,437.484 388.662,437.602 388.145,437.602C387.57,437.602 387.047,437.459 386.519,437.274C385.958,437.078 385.389,436.814 384.65,436.814C383.521,436.814 382.341,437.539 381.58,438.721C380.393,440.565 380.701,444.021 382.625,446.977C382.97,447.508 383.368,448.075 383.836,448.506C384.185,448.829 384.567,449.085 385.018,449.089C385.459,449.094 385.737,448.93 386.059,448.787C386.586,448.552 387.178,448.318 388.156,448.313C389.144,448.307 389.732,448.543 390.255,448.782C390.568,448.926 390.836,449.091 391.272,449.087C391.723,449.083 392.109,448.793 392.469,448.446C392.955,447.976 393.372,447.37 393.722,446.832C394.066,446.305 394.266,445.95 394.479,445.509C391.775,443.821 391.313,439.831 393.753,437.653ZM391.543,433.609C392.237,432.71 392.447,431.175 392.256,429.879C392.187,429.414 391.772,429.08 391.303,429.113C390.171,429.191 388.525,429.723 387.752,430.67C387.037,431.547 386.756,433.087 386.985,434.351C387.061,434.769 387.419,435.077 387.843,435.09C389.11,435.13 390.782,434.594 391.543,433.609L391.543,433.609ZM390.532,431.054C389.995,431.192 389.454,431.431 389.147,431.808C388.861,432.158 388.722,432.689 388.701,433.229C389.261,433.127 389.818,432.897 390.119,432.508C390.4,432.144 390.517,431.608 390.532,431.054Z" transform="translate(-336 -388)"/></g></svg>