<svg xmlns="http://www.w3.org/2000/svg" data-name="Layer 1" viewBox="0 0 64 64"><rect width="54" height="10" x="5" y="13" fill="#ffcc40"/><rect width="54" height="3" x="5" y="13" fill="#ed9b28"/><rect width="54" height="10" x="5" y="30" fill="#ffcc40"/><rect width="54" height="3" x="5" y="30" fill="#ed9b28"/><circle cx="5" cy="49" r="2" fill="#fc7a71"/><circle cx="59" cy="49" r="2" fill="#fc7a71"/><path fill="#0a1827" d="M16 17H15a1 1 0 0 0 0 2h1a1 1 0 0 0 0-2zM21 17H20a1 1 0 0 0 0 2h1a1 1 0 0 0 0-2zM39 19H49a1 1 0 0 0 0-2H39a1 1 0 0 0 0 2zM16 34H15a1 1 0 0 0 0 2h1a1 1 0 0 0 0-2zM21 34H20a1 1 0 0 0 0 2h1a1 1 0 0 0 0-2zM39 36H49a1 1 0 0 0 0-2H39a1 1 0 0 0 0 2z"/><path fill="#0a1827" d="M59,46a3,3,0,0,0-2.82,2H33V41H59a1,1,0,0,0,1-1V30a1,1,0,0,0-1-1H33V24H59a1,1,0,0,0,1-1V13a1,1,0,0,0-1-1H5a1,1,0,0,0-1,1V23a1,1,0,0,0,1,1H31v5H5a1,1,0,0,0-1,1V40a1,1,0,0,0,1,1H31v7H7.82a3,3,0,1,0,0,2H56.18A3,3,0,1,0,59,46ZM6,14H58v8H6ZM6,31H58v8H6ZM5,50a1,1,0,1,1,1-1A1,1,0,0,1,5,50Zm54,0a1,1,0,1,1,1-1A1,1,0,0,1,59,50Z"/></svg>