<svg id="Livello_1" data-name="Livello 1" xmlns="http://www.w3.org/2000/svg" viewBox="0 0 100.12 80.37">
<defs>
    <style>
        .cls-1{
            fill:#ff4f4f;
            fill-opacity: 0;
            stroke:#fff;
            stroke-width:4px;
            stroke-dasharray: 1;
            stroke-dashoffset:1;
            animation-name: lines, fill;
            animation-duration: 8s, 0.5s;
            animation-timing-function: ease-in-out;
            animation-delay: 0s, 8s;
            animation-iteration-count: 1;
            animation-direction: normal;
            animation-fill-mode: forwards;
            }
            @keyframes lines {
                from {stroke-dashoffset: 1;}to{stroke-dashoffset: 0;}
            }

            @keyframes fill {
                from {fill-opacity: 0;} to {fill-opacity: 1;}
            }
    </style>
</defs>
<path class="cls-1" d="M88.12,33l-9.2,6.47c.75,1,1.49,2,2.19,3l.65.91-.92.65L57.72,60.23l-.85.6-.6-.85-17-24.17-.6-.86.85-.6A125.13,125.13,0,0,0,57.15,19.09l.7-.68.77.53c1,.84,2.14,1.74,3.28,2.71l9.52-6.71c-1.81-1.54-3.6-3-5.39-4.45Q61.16,6.65,56,3.32a112.59,112.59,0,0,1-8.47,9.6A117,117,0,0,1,33,25.16l-.39.28a106.06,106.06,0,0,1-11,6.78l7.07,10.05L40.85,59.56a110.61,110.61,0,0,1-13.33,4l-1.17.27-.26-1.09-7.5-32L15.57,18A109.64,109.64,0,0,1,2.49,20.22l3,12.83L13,65.1,16.2,78.63,30,75.38l.24,0A135.93,135.93,0,0,0,48,69.72l5.92,8.41L64,71,64,71l.85-.6L87.3,54.54l.2-.14.18,0,9.85-6.93A117,117,0,0,0,88.12,33Z" transform="translate(-0.03 -0.66)" pathLength="1"/>
</svg>