<svg id="Livello_1" data-name="Livello 1" xmlns="http://www.w3.org/2000/svg" viewBox="0 0 99.61 90.29">
<defs>
<style>
.cls-1{
    fill:#66b32e;
    fill-opacity: 0;
    stroke:#fff;
    stroke-width:2px;
    stroke-dasharray: 1;
    stroke-dashoffset:1;
    animation-name: lines, fill;
    animation-duration: 8s, 0.5s;
    animation-timing-function: ease-in-out;
    animation-delay: 0s, 8s;
    animation-iteration-count: 1;
    animation-direction: normal;
    animation-fill-mode: forwards;
    }
    @keyframes lines {
        from {stroke-dashoffset: 1;}to{stroke-dashoffset: 0;}
    }

    @keyframes fill {
        from {fill-opacity: 0;} to {fill-opacity: 1;}
    }
   </style>
   </defs>
   <path class="cls-1" d="M95.67,51.62l-.36,0c-.08-.22-.23-.11-.45.32q-2.43,5.19-9,13.74-2.92,4-8.11,9.68Q64.24,89.64,55.6,89.63a6.9,6.9,0,0,1-5.11-1.95,14.41,14.41,0,0,1-3.13-7,52.16,52.16,0,0,1,7.77-.12l1.54.12a28.14,28.14,0,0,1,8.67,2.23l.61,0a1.4,1.4,0,0,0,.81-1.26l0-.48a4,4,0,0,0-1.14-3.08,35.83,35.83,0,0,0-14.22-3.69c-1.46-.1-3-.11-4.51-.09A58.15,58.15,0,0,1,48.79,61.1a96,96,0,0,1,4.42-13.29,117.34,117.34,0,0,1,6.08-12.4A85.49,85.49,0,0,1,67,24.14q7.69-9.27,14.87-11.3l0,.32v.2q0,3.86-2.43,12.12-2.19,7.26-6.29,17.18c-1.64,3.84-2.47,5.84-2.47,6V49A3.66,3.66,0,0,0,72,51.13a7.42,7.42,0,0,0,4.58,2.11H77a1.54,1.54,0,0,0,1.38-.77q2.15-4.9,4.82-11.55Q89.8,23.46,89.8,16.2c0-3.3-1-5.75-3-7.37a10.1,10.1,0,0,0-5.75-2.19h-.61q-6,0-13.41,5.79A51.94,51.94,0,0,0,60.34,19,81.8,81.8,0,0,0,54,27.38a113.17,113.17,0,0,0-7.74,14.47Q39.07,59,39.06,71.23v1.38c0,.79,0,1.56.1,2.33a95.66,95.66,0,0,0-12.8,2.69h-.12Q41,45.79,42,29.69l.08-.85a.9.9,0,0,1,.12-.48,1.44,1.44,0,0,1-.08-.49l.08-1a26.56,26.56,0,0,0-.93-9.69Q37.91,6.64,29.19,6.07L27.86,6q-5-.33-10.58,3.65Q6.78,18.51,6,31.19a32.17,32.17,0,0,0,3.4,16.25c1.16,1.7,3.12,2.64,5.88,2.8a2.53,2.53,0,0,0,1.7-.37,1.38,1.38,0,0,0-.08-.48,28.17,28.17,0,0,1-3.16-14.55,33.47,33.47,0,0,1,1.09-6q3.4-9.76,9.85-14.18,4.34-2.76,6.68-2.59a1.42,1.42,0,0,0,.45.16Q35,14.58,34.42,23.86l-.08,1.58q-1,15.08-13.82,43.72-5.31,11.1-5.31,11.47l0,.85a63.65,63.65,0,0,0-8.19,3.69C3.34,87,1.45,88.4,1.4,89.26l0,.37a2.47,2.47,0,0,0,.28,1Q4,94,7.11,94.21l.32,0,.73-.09a42.28,42.28,0,0,1,6.41-3.93,116.93,116.93,0,0,1,25.91-8.6,26,26,0,0,0,2.19,4.84,19.83,19.83,0,0,0,3.28,4q4.62,3.77,8.68,3.77h.85q6.15,0,15-6.41a78.13,78.13,0,0,0,8.83-7.74,123.4,123.4,0,0,0,8.51-9.64,135.38,135.38,0,0,0,9-13.05,22.17,22.17,0,0,0,1.7-3l.2-.61.17-.44C98.12,51.82,97.05,51.27,95.67,51.62Z" transform="translate(-0.36 -4.96)" pathLength="1"/></svg>
